<svg width="43" height="76" viewBox="0 0 43 76" fill="none" xmlns="http://www.w3.org/2000/svg">
<g clip-path="url(#clip0_61_764)">
<path d="M21.5 75.7192C15.757 75.7192 10.3579 73.4828 6.29753 69.4224C2.23644 65.3613 0 59.9622 0 54.2192C0 48.4762 2.23644 43.0771 6.29753 39.0167C10.3586 34.9556 15.757 32.7192 21.5 32.7192C25.3427 32.7192 29.1152 33.746 32.4094 35.6893C34.1653 36.7251 34.7486 38.9873 33.7135 40.7432C32.6784 42.4991 30.4155 43.0824 28.6596 42.0472C26.5002 40.7734 24.0243 40.1009 21.5 40.1009C13.7148 40.1009 7.38175 46.4347 7.38175 54.2192C7.38175 62.0037 13.7155 68.3374 21.5 68.3374C29.2845 68.3374 35.6183 62.0037 35.6183 54.2192V3.69087C35.6183 1.65239 37.2706 0 39.3091 0C41.3476 0 43 1.65239 43 3.69087V54.2192C43 59.9622 40.7636 65.3613 36.7032 69.4217C32.6429 73.482 27.243 75.7184 21.5008 75.7184L21.5 75.7192Z" fill="white"/>
</g>
<defs>
<clipPath id="clip0_61_764">
<rect width="43" height="75.7192" fill="white"/>
</clipPath>
</defs>
</svg>
