<svg width="719" height="289" viewBox="0 0 719 289" fill="none" xmlns="http://www.w3.org/2000/svg">
<path d="M320.11 204.478C317.608 204.478 315.582 202.451 315.582 199.949V107.22C315.582 104.718 317.608 102.691 320.11 102.691C322.612 102.691 324.639 104.718 324.639 107.22V199.949C324.639 202.451 322.612 204.478 320.11 204.478Z" fill="#94FF64"/>
<path d="M151.372 204.478C148.87 204.478 146.844 202.451 146.844 199.949V107.22C146.844 104.718 148.87 102.691 151.372 102.691C153.874 102.691 155.9 104.718 155.9 107.22V199.949C155.9 202.451 153.874 204.478 151.372 204.478Z" fill="#94FF64"/>
<path d="M534.13 204.478C531.628 204.478 529.602 202.451 529.602 199.949V107.22C529.602 104.718 531.628 102.691 534.13 102.691C536.632 102.691 538.658 104.718 538.658 107.22V199.949C538.658 202.451 536.632 204.478 534.13 204.478Z" fill="#94FF64"/>
<path d="M567.021 204.477C564.519 204.477 562.492 202.45 562.492 199.948V22.0518C562.492 19.5499 564.519 17.5234 567.021 17.5234C569.522 17.5234 571.549 19.5499 571.549 22.0518V199.948C571.549 202.45 569.522 204.477 567.021 204.477Z" fill="#94FF64"/>
<path d="M367.556 204.478C365.054 204.478 363.027 202.451 363.027 199.949V57.0909C363.027 54.5889 365.054 52.5625 367.556 52.5625C370.058 52.5625 372.084 54.5889 372.084 57.0909V199.949C372.084 202.451 370.058 204.478 367.556 204.478Z" fill="#94FF64"/>
<path d="M367.557 111.748H352.466C349.964 111.748 347.938 109.722 347.938 107.22C347.938 104.718 349.964 102.691 352.466 102.691H367.557C370.059 102.691 372.085 104.718 372.085 107.22C372.085 109.722 370.059 111.748 367.557 111.748Z" fill="#94FF64"/>
<path d="M450.571 204.478C422.507 204.478 399.684 181.644 399.684 153.591C399.684 125.537 422.518 102.703 450.571 102.703C478.624 102.703 501.459 125.537 501.459 153.591C501.459 181.644 478.624 204.478 450.571 204.478ZM450.571 111.749C427.499 111.749 408.74 130.519 408.74 153.579C408.74 176.64 427.51 195.41 450.571 195.41C473.632 195.41 492.402 176.64 492.402 153.579C492.402 130.519 473.632 111.749 450.571 111.749Z" fill="#94FF64"/>
<path d="M255.98 268.498C254.802 268.498 253.636 268.045 252.742 267.139C250.987 265.35 251.021 262.486 252.798 260.731L274.387 239.55V153.579C274.387 151.077 276.414 149.051 278.916 149.051C281.418 149.051 283.444 151.077 283.444 153.579V241.452C283.444 242.663 282.957 243.829 282.086 244.69L259.138 267.207C258.255 268.067 257.112 268.498 255.968 268.498H255.98Z" fill="#94FF64"/>
<path d="M232.567 204.478C204.503 204.478 181.68 181.644 181.68 153.591C181.68 125.537 204.514 102.703 232.567 102.703C260.62 102.703 283.455 125.537 283.455 153.591C283.455 181.644 260.62 204.478 232.567 204.478ZM232.567 111.749C209.495 111.749 190.736 130.519 190.736 153.579C190.736 176.64 209.506 195.41 232.567 195.41C255.628 195.41 274.398 176.64 274.398 153.579C274.398 130.519 255.628 111.749 232.567 111.749Z" fill="#94FF64"/>
<path d="M652.13 204.478C624.065 204.478 601.242 181.644 601.242 153.591C601.242 125.537 624.076 102.703 652.13 102.703C663.779 102.703 675.156 106.733 684.179 114.069C686.115 115.643 686.421 118.496 684.836 120.443C683.262 122.39 680.409 122.673 678.462 121.1C671.047 115.077 661.696 111.76 652.118 111.76C629.046 111.76 610.288 130.53 610.288 153.591C610.288 176.651 629.058 195.421 652.118 195.421C675.179 195.421 693.949 176.651 693.949 153.591C693.949 151.089 695.975 149.062 698.477 149.062C700.979 149.062 703.006 151.089 703.006 153.591C703.006 181.655 680.172 204.478 652.118 204.478H652.13Z" fill="#94FF64"/>
<path d="M652.131 150.32C650.942 150.32 649.765 149.856 648.871 148.939C647.127 147.139 647.184 144.275 648.984 142.532L678.18 114.32C679.98 112.576 682.845 112.633 684.588 114.433C686.332 116.233 686.275 119.097 684.475 120.841L655.278 149.052C654.395 149.901 653.263 150.32 652.131 150.32Z" fill="#94FF64"/>
<path d="M64.825 204.477C36.7604 204.477 13.9375 181.643 13.9375 153.589C13.9375 125.536 36.7718 102.702 64.825 102.702C73.9156 102.702 82.8478 105.136 90.6479 109.732C92.7989 111 93.5235 113.774 92.2442 115.936C90.9763 118.087 88.2026 118.8 86.0403 117.532C79.6327 113.751 72.2968 111.759 64.825 111.759C41.753 111.759 22.9942 130.529 22.9942 153.589C22.9942 176.65 41.7643 195.42 64.825 195.42C87.8856 195.42 106.656 176.65 106.656 153.589V22.0518C106.656 19.5499 108.682 17.5234 111.184 17.5234C113.686 17.5234 115.712 19.5499 115.712 22.0518V153.589C115.712 181.654 92.8782 204.477 64.825 204.477Z" fill="#94FF64"/>
</svg>
