<svg width="137" height="55" viewBox="0 0 137 55" fill="none" xmlns="http://www.w3.org/2000/svg">
<path d="M60.9204 38.9141C60.4442 38.9141 60.0586 38.5284 60.0586 38.0523V20.4048C60.0586 19.9286 60.4442 19.543 60.9204 19.543C61.3965 19.543 61.7822 19.9286 61.7822 20.4048V38.0523C61.7822 38.5284 61.3965 38.9141 60.9204 38.9141Z" fill="#94FF64"/>
<path d="M28.8071 38.9141C28.331 38.9141 27.9453 38.5284 27.9453 38.0523V20.4048C27.9453 19.9286 28.331 19.543 28.8071 19.543C29.2833 19.543 29.6689 19.9286 29.6689 20.4048V38.0523C29.6689 38.5284 29.2833 38.9141 28.8071 38.9141Z" fill="#94FF64"/>
<path d="M101.651 38.9141C101.175 38.9141 100.789 38.5284 100.789 38.0523V20.4048C100.789 19.9286 101.175 19.543 101.651 19.543C102.127 19.543 102.513 19.9286 102.513 20.4048V38.0523C102.513 38.5284 102.127 38.9141 101.651 38.9141Z" fill="#94FF64"/>
<path d="M107.909 38.9153C107.433 38.9153 107.047 38.5296 107.047 38.0535V4.19774C107.047 3.72159 107.433 3.33594 107.909 3.33594C108.385 3.33594 108.77 3.72159 108.77 4.19774V38.0535C108.77 38.5296 108.385 38.9153 107.909 38.9153Z" fill="#94FF64"/>
<path d="M69.9477 38.9151C69.4716 38.9151 69.0859 38.5294 69.0859 38.0533V10.8657C69.0859 10.3896 69.4716 10.0039 69.9477 10.0039C70.4239 10.0039 70.8095 10.3896 70.8095 10.8657V38.0533C70.8095 38.5294 70.4239 38.9151 69.9477 38.9151Z" fill="#94FF64"/>
<path d="M69.9486 21.2666H67.0766C66.6005 21.2666 66.2148 20.8809 66.2148 20.4048C66.2148 19.9286 66.6005 19.543 67.0766 19.543H69.9486C70.4247 19.543 70.8104 19.9286 70.8104 20.4048C70.8104 20.8809 70.4247 21.2666 69.9486 21.2666Z" fill="#94FF64"/>
<path d="M85.7509 38.9158C80.4099 38.9158 76.0664 34.5702 76.0664 29.2313C76.0664 23.8925 80.412 19.5469 85.7509 19.5469C91.0897 19.5469 95.4353 23.8925 95.4353 29.2313C95.4353 34.5702 91.0897 38.9158 85.7509 38.9158ZM85.7509 21.2683C81.36 21.2683 77.79 24.8405 77.79 29.2292C77.79 33.6179 81.3622 37.1901 85.7509 37.1901C90.1396 37.1901 93.7117 33.6179 93.7117 29.2292C93.7117 24.8405 90.1396 21.2683 85.7509 21.2683Z" fill="#94FF64"/>
<path d="M48.7145 51.0993C48.4904 51.0993 48.2685 51.0131 48.0983 50.8407C47.7643 50.5003 47.7708 49.9552 48.1091 49.6213L52.2177 45.5902V29.229C52.2177 28.7528 52.6033 28.3672 53.0795 28.3672C53.5556 28.3672 53.9413 28.7528 53.9413 29.229V45.9522C53.9413 46.1827 53.8486 46.4046 53.6827 46.5684L49.3156 50.8537C49.1475 51.0174 48.9299 51.0993 48.7123 51.0993H48.7145Z" fill="#94FF64"/>
<path d="M44.2587 38.9158C38.9177 38.9158 34.5742 34.5702 34.5742 29.2313C34.5742 23.8925 38.9198 19.5469 44.2587 19.5469C49.5975 19.5469 53.9431 23.8925 53.9431 29.2313C53.9431 34.5702 49.5975 38.9158 44.2587 38.9158ZM44.2587 21.2683C39.8678 21.2683 36.2978 24.8405 36.2978 29.2292C36.2978 33.6179 39.87 37.1901 44.2587 37.1901C48.6474 37.1901 52.2196 33.6179 52.2196 29.2292C52.2196 24.8405 48.6474 21.2683 44.2587 21.2683Z" fill="#94FF64"/>
<path d="M124.106 38.9158C118.765 38.9158 114.422 34.5702 114.422 29.2313C114.422 23.8925 118.767 19.5469 124.106 19.5469C126.323 19.5469 128.489 20.3139 130.206 21.71C130.574 22.0095 130.632 22.5524 130.331 22.923C130.031 23.2935 129.488 23.3474 129.118 23.0479C127.706 21.9017 125.927 21.2705 124.104 21.2705C119.713 21.2705 116.143 24.8426 116.143 29.2313C116.143 33.62 119.715 37.1922 124.104 37.1922C128.493 37.1922 132.065 33.62 132.065 29.2313C132.065 28.7552 132.451 28.3695 132.927 28.3695C133.403 28.3695 133.789 28.7552 133.789 29.2313C133.789 34.5723 129.443 38.9158 124.104 38.9158H124.106Z" fill="#94FF64"/>
<path d="M124.105 28.6092C123.879 28.6092 123.655 28.5208 123.484 28.3463C123.153 28.0038 123.163 27.4587 123.506 27.1269L129.062 21.7579C129.405 21.4261 129.95 21.4369 130.282 21.7794C130.614 22.122 130.603 22.6671 130.26 22.9989L124.704 28.3679C124.536 28.5295 124.32 28.6092 124.105 28.6092Z" fill="#94FF64"/>
<path d="M12.3368 38.9153C6.99581 38.9153 2.65234 34.5697 2.65234 29.2308C2.65234 23.892 6.99796 19.5464 12.3368 19.5464C14.0669 19.5464 15.7668 20.0096 17.2512 20.8843C17.6606 21.1256 17.7985 21.6535 17.555 22.065C17.3137 22.4743 16.7858 22.6101 16.3743 22.3688C15.1549 21.6492 13.7588 21.27 12.3368 21.27C7.94594 21.27 4.37594 24.8421 4.37594 29.2308C4.37594 33.6195 7.9481 37.1917 12.3368 37.1917C16.7255 37.1917 20.2977 33.6195 20.2977 29.2308V4.19774C20.2977 3.72159 20.6833 3.33594 21.1595 3.33594C21.6356 3.33594 22.0213 3.72159 22.0213 4.19774V29.2308C22.0213 34.5718 17.6757 38.9153 12.3368 38.9153Z" fill="#94FF64"/>
</svg>
